<?xml version="1.0" encoding="UTF-8" standalone="no"?>
<svg
   xmlns:dc="http://purl.org/dc/elements/1.1/"
   xmlns:cc="http://creativecommons.org/ns#"
   xmlns:rdf="http://www.w3.org/1999/02/22-rdf-syntax-ns#"
   xmlns:svg="http://www.w3.org/2000/svg"
   xmlns="http://www.w3.org/2000/svg"
   xmlns:sodipodi="http://sodipodi.sourceforge.net/DTD/sodipodi-0.dtd"
   xmlns:inkscape="http://www.inkscape.org/namespaces/inkscape"
   width="24"
   height="24"
   viewBox="0 0 24 24"
   preserveAspectRatio="xMinYMid meet"
   version="1.1"
   id="svg8"
   sodipodi:docname="icon.svg"
   inkscape:version="0.92.3 (2405546, 2018-03-11)"
   inkscape:export-filename="/var/www/html/m/MDL-pw202101/mod/nosferatu/pix/icon.png"
   inkscape:export-xdpi="300"
   inkscape:export-ydpi="300">
  <metadata
     id="metadata14">
    <rdf:RDF>
      <cc:Work
         rdf:about="">
        <dc:format>image/svg+xml</dc:format>
        <dc:type
           rdf:resource="http://purl.org/dc/dcmitype/StillImage" />
      </cc:Work>
    </rdf:RDF>
  </metadata>
  <defs
     id="defs12" />
  <sodipodi:namedview
     pagecolor="#ffffff"
     bordercolor="#666666"
     borderopacity="1"
     objecttolerance="10"
     gridtolerance="10"
     guidetolerance="10"
     inkscape:pageopacity="0"
     inkscape:pageshadow="2"
     inkscape:window-width="1920"
     inkscape:window-height="1052"
     id="namedview10"
     showgrid="false"
     inkscape:zoom="27.812867"
     inkscape:cx="14.250644"
     inkscape:cy="12.829705"
     inkscape:window-x="2680"
     inkscape:window-y="303"
     inkscape:window-maximized="1"
     inkscape:current-layer="svg8" />
  <title
     id="title2">h5p</title>
  <path
     d="M 22.428074,7.8673169 A 3.4794664,3.4794664 0 0 0 19.929466,7.0723053 H 16.181555 V 9.1372705 H 11.70058 l -0.371694,1.5074245 a 6.5356148,6.5356148 0 0 1 1.032483,-0.361369 3.6033643,3.6033643 0 0 1 0.887935,-0.06195 3.3452436,3.3452436 0 0 1 2.426334,0.908585 3.025174,3.025174 0 0 1 0.929234,2.271462 3.8408353,3.8408353 0 0 1 -0.474942,1.889443 3.262645,3.262645 0 0 1 -1.352552,1.362877 3.5207657,3.5207657 0 0 1 -0.691763,0.27877 h 3.799536 v -3.613689 h 1.703596 a 3.9234339,3.9234339 0 0 0 2.736079,-0.846636 3.0974478,3.0974478 0 0 0 0.908585,-2.35406 2.9941995,2.9941995 0 0 0 -0.805337,-2.2508121 z m -2.519257,3.0974481 a 1.9410673,1.9410673 0 0 1 -1.249304,0.29942 H 17.885151 V 9.106296 h 0.89826 a 1.6106729,1.6106729 0 0 1 1.166705,0.3200696 1.0324826,1.0324826 0 0 1 0.309745,0.7846864 0.97053364,0.97053364 0 0 1 -0.351044,0.753713 z m -6.26717,2.436659 a 1.362877,1.362877 0 0 1 -2.581206,0.609164 l -2.6947797,0.392344 a 4.1299304,4.1299304 0 0 0 0.5368909,1.135731 3.3039443,3.3039443 0 0 0 0.7950116,0.83631 3.7272622,3.7272622 0 0 0 1.1667052,0.547216 H 7.137007 V 13.318825 H 3.7401392 v 3.603364 H 0.74593969 V 7.0723053 H 3.7401392 V 11.284834 H 7.137007 V 7.0723053 h 2.4366589 l -1.2080046,5.3689097 2.6844547,0.382018 a 1.362877,1.362877 0 0 1 2.591531,0.609165 z"
     id="path6"
     inkscape:connector-curvature="0"
     style="fill:#ffffff;stroke-width:1.03248262" />
  <path
     sodipodi:nodetypes="cczc"
     inkscape:connector-curvature="0"
     id="path856"
     d="M 4.2500506,10.301304 1.5175024,2.2115236 c 0,0 -0.3595462,7.5504622 -0.1078641,10.0313284 0.2516821,2.480866 2.1932303,3.235912 2.1932303,3.235912"
     style="opacity:1;vector-effect:none;fill:#cccccc;fill-opacity:1;stroke:#4d4d4d;stroke-width:1.03199995;stroke-linecap:round;stroke-linejoin:round;stroke-miterlimit:4;stroke-dasharray:none;stroke-dashoffset:0;stroke-opacity:1" />
  <path
     style="fill:#cccccc;stroke:#4d4d4d;stroke-width:1.03248262px"
     d="m 23.313559,15.182192 c 0,5.39297 -5.065252,7.699871 -11.313559,7.699871 -6.2483066,0 -11.31355991,-2.306901 -11.3135595,-7.699871 C 0.68644081,9.7892221 5.7516939,1.2874262 12,1.2874263 c 6.248306,0 11.313559,8.5017959 11.313559,13.8947657 z"
     id="path4832"
     inkscape:connector-curvature="0"
     sodipodi:nodetypes="sssss" />
  <circle
     style="fill:#000000;stroke:#4d4d4d;stroke-width:1.03248262px;font-variant-east_asian:normal;opacity:1;vector-effect:none;fill-opacity:1;stroke-linecap:butt;stroke-linejoin:miter;stroke-miterlimit:4;stroke-dasharray:none;stroke-dashoffset:0;stroke-opacity:1"
     id="path4835"
     cx="5.2621055"
     cy="13.836936"
     r="2.8343794" />
  <circle
     r="2.8343794"
     cy="13.836936"
     cx="14.362963"
     id="circle4837"
     style="fill:#000000;stroke:#4d4d4d;stroke-width:1.03248262px;font-variant-east_asian:normal;opacity:1;vector-effect:none;fill-opacity:1;stroke-linecap:butt;stroke-linejoin:miter;stroke-miterlimit:4;stroke-dasharray:none;stroke-dashoffset:0;stroke-opacity:1" />
  <circle
     style="fill:#ffffff;stroke:none;stroke-width:0.59358042px"
     id="circle4839"
     cx="14.817946"
     cy="13.224454"
     r="1.4789208" />
  <circle
     r="1.4789208"
     cy="13.224454"
     cx="5.5431042"
     id="circle4841"
     style="fill:#ffffff;stroke:none;stroke-width:0.59358042px" />
  <path
     style="fill:#aa0000;fill-opacity:1;stroke:none;stroke-width:1.45133674px"
     d="M 7.6915585,17.562153 H 10.421503 L 9.0565353,21.711528 Z"
     id="rect4843"
     inkscape:connector-curvature="0"
     sodipodi:nodetypes="cccc" />
  <path
     sodipodi:nodetypes="cccc"
     inkscape:connector-curvature="0"
     id="path822"
     d="m 9.5971523,17.562153 h 2.7299657 l -1.364979,4.149375 z"
     style="fill:#aa0000;fill-opacity:1;stroke:none;stroke-width:1.45133674px" />
  <path
     style="opacity:1;vector-effect:none;fill:#cccccc;fill-opacity:1;stroke:#4d4d4d;stroke-width:1.032;stroke-linecap:round;stroke-linejoin:round;stroke-miterlimit:4;stroke-dasharray:none;stroke-dashoffset:0;stroke-opacity:1"
     d="m 20.386248,10.301304 2.732548,-8.0897804 c 0,0 0.359546,7.5504622 0.107864,10.0313284 -0.251682,2.480866 -2.19323,3.235912 -2.19323,3.235912"
     id="path840"
     inkscape:connector-curvature="0"
     sodipodi:nodetypes="cczc" />
</svg>
